# xmcd
#
# Track frame offsets: 
#        150
#        18234
#        63675
#        78441
#        91128
#        111650
#        123986
#        141697
#        168885
#        191370
#        222872
#
# Disc length: 3316 seconds
#
# Revision: 1
# Processed by: cddbd v1.5.2PL0 Copyright (c) Steve Scherf et al.
# Submitted via: ExactAudioCopy v1.0b3
#
DISCID=9b0cf20b
DTITLE=Sons Of The Delta - Made In Mississippi
DYEAR=2006
DGENRE=Blues
TTITLE0=It's Me
TTITLE1=Cryin' Down In Clarksdale
TTITLE2=Pickin' With Phil
TTITLE3=You Can't Have The Hoo Without The Do
TTITLE4=I Wish Somebody
TTITLE5=Clarksdale Strut
TTITLE6=eBay Blues
TTITLE7=One More Time
TTITLE8=Train Roll
TTITLE9=I'm Moving On
TTITLE10=Standing On The Edge
EXTD=
EXTT0=
EXTT1=
EXTT2=
EXTT3=
EXTT4=
EXTT5=
EXTT6=
EXTT7=
EXTT8=
EXTT9=
EXTT10=
PLAYORDER=
